<svg xmlns="http://www.w3.org/2000/svg" fill="none" viewBox="0 0 36 36">
  <!-- Gradient shape -->
  <path fill="url(#newGradient)" d="M18 27a7 7 0 0 1-4.5-1.9c-1.3 2-.3 4.1.6 5.4.1.2.4.07.45-.15.4-1.7 2.7-1.2 2.7.6 0 2.1.8 3.3 1.6 3.6.3.1.5-.2.4-.5-.3-1-.3-2.3 1.2-3 2.8-1.4 3-4.6 2.4-5.7-.6.6-2.4 1.8-4.8 1.8Z"/>

  <!-- Code symbol </> paths -->
  <!-- Left angle bracket ( < ) -->
  <path d="M12 14L9 18L12 22" stroke="#555" stroke-width="2" fill="none" />

  <!-- Right angle bracket ( > ) -->
  <path d="M24 14L27 18L24 22" stroke="#555" stroke-width="2" fill="none" />

  <!-- Forward slash ( / ) -->
  <path d="M18 12L16 24" stroke="#555" stroke-width="2" fill="none" />

  <!-- Gradient definition -->
  <defs>
    <linearGradient id="newGradient" x1="18" x2="18" y1="32" y2="24" gradientUnits="userSpaceOnUse">
      <stop stop-color="#555"/>
      <stop offset="1" stop-color="#555" stop-opacity="0.5"/>
    </linearGradient>
  </defs>

  <!-- Dark mode styling -->
  <style>
    @media (prefers-color-scheme: dark) { :root { filter: invert(90%); } }
  </style>
</svg>
